<svg xmlns="http://www.w3.org/2000/svg" width="13.455" height="20.592" viewBox="0 0 13.455 20.592">
  <g id="Arrow" transform="translate(-6.5 6.085)">
    <path id="Path_21" data-name="Path 21" d="M17.773,27.092A.773.773,0,0,1,17,26.32V7.273a.773.773,0,1,1,1.545,0V26.32A.773.773,0,0,1,17.773,27.092Z" transform="translate(-4.545 -12.585)" fill="#fff"/>
    <path id="Path_22" data-name="Path 22" d="M13.228,23.534a.771.771,0,0,1-.5-.18L6.776,18.365a.773.773,0,0,1,.992-1.185l5.459,4.573,5.459-4.573a.773.773,0,1,1,.992,1.185l-5.955,4.989A.771.771,0,0,1,13.228,23.534Z" transform="translate(0 -9.026)" fill="#fff"/>
  </g>
</svg>
