<svg xmlns="http://www.w3.org/2000/svg" width="40" height="40" viewBox="0 0 40 40">
  <g id="Instagram_Icon" data-name="Instagram Icon" transform="translate(-60 -3098)">
    <circle id="Ellipse_2" data-name="Ellipse 2" cx="20" cy="20" r="20" transform="translate(60 3098)" fill="#b8e3f4"/>
    <path id="Insta_Icon" data-name="Insta Icon" d="M10.415,7.312a5.341,5.341,0,1,0,5.341,5.341A5.332,5.332,0,0,0,10.415,7.312Zm0,8.813a3.472,3.472,0,1,1,3.472-3.472,3.478,3.478,0,0,1-3.472,3.472Zm6.8-9.031a1.246,1.246,0,1,1-1.246-1.246A1.243,1.243,0,0,1,17.219,7.094Zm3.537,1.264a6.165,6.165,0,0,0-1.683-4.365,6.205,6.205,0,0,0-4.365-1.683c-1.72-.1-6.875-.1-8.594,0A6.2,6.2,0,0,0,1.751,3.989,6.185,6.185,0,0,0,.068,8.353c-.1,1.72-.1,6.875,0,8.594a6.165,6.165,0,0,0,1.683,4.365,6.213,6.213,0,0,0,4.365,1.683c1.72.1,6.875.1,8.594,0a6.165,6.165,0,0,0,4.365-1.683,6.205,6.205,0,0,0,1.683-4.365c.1-1.72.1-6.87,0-8.59ZM18.535,18.793a3.515,3.515,0,0,1-1.98,1.98c-1.371.544-4.625.418-6.14.418s-4.774.121-6.14-.418a3.515,3.515,0,0,1-1.98-1.98c-.544-1.371-.418-4.625-.418-6.14s-.121-4.774.418-6.14a3.515,3.515,0,0,1,1.98-1.98c1.371-.544,4.625-.418,6.14-.418s4.774-.121,6.14.418a3.515,3.515,0,0,1,1.98,1.98c.544,1.371.418,4.625.418,6.14S19.079,17.427,18.535,18.793Z" transform="translate(69.588 3105.347)" fill="#5ab9ea"/>
  </g>
</svg>
